<svg id="logo" xmlns="http://www.w3.org/2000/svg" viewBox="0 0 521.74 65.38"><defs><style>.cls-1{fill:#e51c41;}.cls-2{fill:#231815;}</style></defs><title>logo</title><path class="cls-1" d="M46.56,61.93,12.39,29.31v30.8H0V.5L34.13,33V2.26H46.56ZM11.39,27,45.56,59.59V3.26H35.13v32.1L1,2.84V59.11H11.39Zm92.08,33.12H90L86.2,51.48H67.44l-3.83,8.61H50.21L76.82.54Zm-12.79-1h11.25L76.82,3,51.75,59.09H63l3.83-8.61h20Zm-7.9-17.67-11.91-.05,6-13.71ZM72.39,40.37l8.87.05-4.4-10.24ZM119.51,60H107.13V0l28.26,38.74L163.63,0V60H151.24V37.59L135.39,59.47,119.51,37.59Zm-11.38-1h10.38V34.51l16.88,23.26,16.85-23.26V59h10.39v-56L135.39,40.45,108.13,3.07Zm82.68,3.13L167.32,2.37h13.34l10.14,26L201.31,1.5l10.48,26.81,10.1-25.94h13.37L211.78,62.15,201.18,34Zm10.35-31L211.8,59.37l22-56H222.57l-10.78,27.7L201.31,4.24,190.8,31.06,180,3.37h-11.2l22,56ZM262,60.4a29.24,29.24,0,0,1-20.67-8.49,28.32,28.32,0,0,1-8.58-20.68,28.57,28.57,0,0,1,8.58-20.71,28.92,28.92,0,0,1,20.54-8.61H262a28.89,28.89,0,0,1,20.49,8.44l.18.17a28.38,28.38,0,0,1,8.63,20.73,28.17,28.17,0,0,1-8.63,20.67A29.27,29.27,0,0,1,262,60.4Zm0-57.49h-.12A28,28,0,0,0,242,11.23a27.56,27.56,0,0,0-8.28,20,27.34,27.34,0,0,0,8.28,20,28.43,28.43,0,0,0,39.94,0,27.17,27.17,0,0,0,8.33-20,27.39,27.39,0,0,0-8.33-20l-.18-.18A27.92,27.92,0,0,0,262,2.91Zm0,46a17.62,17.62,0,0,1-12.53-5.17,17.19,17.19,0,0,1-5.21-12.56,17.41,17.41,0,0,1,5.21-12.55l0,0a17.58,17.58,0,0,1,12.49-5.16h0a17.56,17.56,0,0,1,12.5,5.21,17.15,17.15,0,0,1,5.25,12.56A17.79,17.79,0,0,1,262,48.89Zm0-34.48a16.59,16.59,0,0,0-11.78,4.87l-.05,0a16.35,16.35,0,0,0-4.91,11.83A16.19,16.19,0,0,0,250.1,43a16.79,16.79,0,0,0,28.62-11.84,16.19,16.19,0,0,0-5-11.84A16.57,16.57,0,0,0,262,14.41Zm79.73,47.52L307.49,29.31v30.8H295.13V.5L329.24,33V2.26h12.42ZM306.49,27l34.17,32.62V3.26H330.24v32.1L296.13,2.84V59.11h10.36ZM411.49,60H399.13V37.33h-18V60H368.79V2.37h12.34V25h18V2.37h12.36Zm-11.36-1h10.36V3.37H400.13V26h-20V3.37H369.79V59h10.34V36.33h20Zm52.52,1.07H417.48V2.26h35.17V14.58H429.87V25H447V37.36H429.87V47.79h22.78Zm-34.17-1h33.17V48.79H428.87V36.36H446V26H428.87V13.58h22.78V3.26H418.48Zm65.24,1.29a29.26,29.26,0,0,1-20.67-8.49,28.26,28.26,0,0,1-8.59-20.68,28.52,28.52,0,0,1,8.59-20.71,28.94,28.94,0,0,1,20.54-8.61h.13a28.89,28.89,0,0,1,20.49,8.44l.18.17A28.37,28.37,0,0,1,513,31.25a28.16,28.16,0,0,1-8.62,20.67A29.27,29.27,0,0,1,483.72,60.4Zm0-57.49h-.12a27.91,27.91,0,0,0-19.84,8.32,27.49,27.49,0,0,0-8.3,20,27.3,27.3,0,0,0,8.29,20,28.43,28.43,0,0,0,39.94,0,27.16,27.16,0,0,0,8.32-20,27.38,27.38,0,0,0-8.32-20l-.18-.18A27.92,27.92,0,0,0,483.72,2.91Zm0,46a17.68,17.68,0,0,1-12.53-5.15A17.19,17.19,0,0,1,466,31.16a17.41,17.41,0,0,1,5.21-12.55l.05-.05a17.71,17.71,0,0,1,25,.06,17.19,17.19,0,0,1,5.25,12.56,17,17,0,0,1-5.25,12.55A17.73,17.73,0,0,1,483.7,48.87Zm0-34.45a16.63,16.63,0,0,0-11.78,4.86l-.05,0A16.35,16.35,0,0,0,467,31.16,16.19,16.19,0,0,0,471.87,43a16.84,16.84,0,0,0,23.66,0,16.09,16.09,0,0,0,5-11.84,16.19,16.19,0,0,0-5-11.85A16.67,16.67,0,0,0,483.7,14.42Z" transform="translate(0 0.01)"/><path class="cls-2" d="M43.86,38.76V7.29H55.29v58L21.11,32.76V64.18H9.72V6.24ZM86.05,6.27,111.92,64.1H99.63L95.8,55.49H76.34L72.51,64.1H60.21Zm5.2,39.17-5.17-12-5.24,12Zm53.38-1.27L172.36,6.1v58H161V40.62L144.63,63.19,128.24,40.62V64.1h-11.4V6.1ZM189.55,7.43,200,34.26,210.54,7.43,221,34.26,231.45,7.43h12.31L221,65.37,210.4,37.18,200,65.37,177.28,7.43Zm101.95,8A27.73,27.73,0,0,1,300,35.76a27.57,27.57,0,0,1-8.47,20.32,28.85,28.85,0,0,1-40.64,0,27.71,27.71,0,0,1-8.44-20.32,27.92,27.92,0,0,1,8.44-20.35,28.61,28.61,0,0,1,40.46-.18l.18.18ZM259,23.53a16.78,16.78,0,0,0-5.06,12.23,17.26,17.26,0,0,0,34.52,0,16.64,16.64,0,0,0-5.1-12.2,17.19,17.19,0,0,0-24.31,0l0,0Zm80,15.23V7.29h11.43v58L316.22,32.76V64.18H304.83V6.24ZM389.87,7.43V30.11h18.95V7.43h11.35V64.1H408.82V41.39H389.87V64.1H378.51V7.43Zm71.51-.14V18.65H438.63V30.07h17.09V41.43H438.63V52.85h22.79V64.18H427.2V7.29Zm51.89,8.16a27.73,27.73,0,0,1,8.47,20.31,27.57,27.57,0,0,1-8.47,20.32,28.85,28.85,0,0,1-40.64,0,27.65,27.65,0,0,1-8.44-20.32,27.87,27.87,0,0,1,8.44-20.31,28.61,28.61,0,0,1,40.46-.18Zm-32.52,8.08a16.79,16.79,0,0,0-5.07,12.23,17.27,17.27,0,0,0,34.53,0,16.64,16.64,0,0,0-5.1-12.2,17.19,17.19,0,0,0-24.31,0l-.05,0Z" transform="translate(0 0.01)"/></svg>