<svg xmlns="http://www.w3.org/2000/svg" viewBox="0 0 34 32.5"><title>자산 1</title><g id="레이어_2" data-name="레이어 2"><g id="Capa_1" data-name="Capa 1"><path d="M8.2,3.79A3.81,3.81,0,0,1,4.07,7.58H4A3.8,3.8,0,1,1,4.12,0,3.79,3.79,0,0,1,8.2,3.79ZM.43,32.5H7.72V10.57H.43ZM25.61,10.06A7.23,7.23,0,0,0,19,13.68v.07H19a.18.18,0,0,0,.05-.07v-3.1H11.75c.09,2.05,0,21.92,0,21.92H19V20.26a4.83,4.83,0,0,1,.24-1.78A4,4,0,0,1,23,15.81c2.65,0,3.7,2,3.7,5V32.5H34V19.93C34,13.19,30.4,10.06,25.61,10.06Z"/></g></g></svg>